<svg height="512pt" viewBox="-71 0 512 512" width="512pt" xmlns="http://www.w3.org/2000/svg"><path d="m340 0h-310c-16.539062 0-30 13.460938-30 30v452c0 16.539062 13.460938 30 30 30h310c16.539062 0 30-13.460938 30-30v-452c0-16.539062-13.460938-30-30-30zm-139.070312 20h90v28.359375c0 5.519531-4.488282 10-10 10h-70c-5.519532 0-10-4.480469-10-10zm149.070312 462c0 5.511719-4.488281 10-10 10h-310c-5.511719 0-10-4.488281-10-10v-364.128906h180c5.519531 0 10-4.480469 10-10 0-5.519532-4.480469-10-10-10h-180v-67.871094c0-5.511719 4.488281-10 10-10h150.929688v28.359375c0 16.539063 13.460937 30 30 30h70c16.539062 0 30-13.460937 30-30v-28.359375h29.070312c5.511719 0 10 4.488281 10 10v67.871094h-70c-5.519531 0-10 4.480468-10 10 0 5.519531 4.480469 10 10 10h70zm0 0"/><path d="m130 59.125h-60c-5.523438 0-10-4.476562-10-10s4.476562-10 10-10h60c5.523438 0 10 4.476562 10 10s-4.476562 10-10 10zm0 0"/><path d="m185.328125 415.269531c-60.652344 0-110-49.34375-110-110 0-60.652343 49.347656-110 110-110 34.929687 0 67 16.035157 88 43.996094 14.394531 19.152344 22 41.976563 22 66.003906 0 24.03125-7.609375 46.855469-22.003906 66.007813-20.992188 27.957031-53.066407 43.992187-87.996094 43.992187zm0-200c-49.625 0-90 40.375-90 90s40.375 90 90 90c28.578125 0 54.824219-13.121093 72.003906-36.003906 11.773438-15.664063 17.996094-34.335937 17.996094-53.996094 0-19.660156-6.21875-38.332031-17.992187-53.992187 0 0 0 0-.003907-.003906-17.179687-22.878907-43.425781-36.003907-72.003906-36.003907zm0 160c-38.597656 0-70-31.402343-70-70 0-38.597656 31.402344-70 70-70 17.257813 0 33.835937 6.335938 46.683594 17.839844 2.121093 1.898437 3.332031 4.613281 3.328125 7.457031 0 2.84375-1.214844 5.554688-3.335938 7.453125-10.597656 9.464844-16.675781 23.042969-16.675781 37.25s6.078125 27.789063 16.675781 37.265625c2.121094 1.898438 3.335938 4.605469 3.335938 7.453125 0 2.84375-1.210938 5.554688-3.328125 7.453125-12.839844 11.496094-29.417969 17.828125-46.683594 17.828125zm0-120c-27.566406 0-50 22.429688-50 50 0 27.570313 22.433594 50 50 50 8.863281 0 17.472656-2.332031 25.015625-6.695312-9.644531-12.253907-15.015625-27.503907-15.015625-43.304688 0-15.804687 5.371094-31.050781 15.015625-43.296875-7.546875-4.367187-16.15625-6.703125-25.015625-6.703125zm0 0"/><path d="m240.019531 117.871094c-5.523437 0-10.003906-4.476563-10.003906-10 0-5.523438 4.472656-10 9.996094-10h.007812c5.523438 0 10 4.476562 10 10 0 5.523437-4.476562 10-10 10zm0 0"/></svg>