<svg height="512pt" viewBox="0 -46 512 512" width="512pt" xmlns="http://www.w3.org/2000/svg"><path d="m482 0h-452c-16.539062 0-30 13.460938-30 30v260c0 16.539062 13.460938 30 30 30h196v40h-25c-22.058594 0-40 17.941406-40 40v10c0 5.519531 4.480469 10 10 10h170c5.519531 0 10-4.480469 10-10v-10c0-22.058594-17.941406-40-40-40h-25v-40h196c16.539062 0 30-13.460938 30-30v-260c0-16.539062-13.460938-30-30-30zm-171 380c11.03125 0 20 8.96875 20 20h-150c0-11.03125 8.96875-20 20-20zm-45-20h-20v-40h20zm226-70c0 5.511719-4.488281 10-10 10h-452c-5.511719 0-10-4.488281-10-10v-260c0-5.511719 4.488281-10 10-10h452c5.511719 0 10 4.488281 10 10zm0 0"/><path d="m218.5 218.988281c-1.726562 0-3.453125-.449219-5-1.339843-3.09375-1.785157-5-5.085938-5-8.660157v-86.601562c0-3.574219 1.90625-6.875 5-8.660157 3.09375-1.789062 6.90625-1.789062 10 0l75 43.300782c3.09375 1.785156 5 5.085937 5 8.660156 0 3.570312-1.90625 6.871094-5 8.660156l-75 43.300782c-1.546875.890624-3.273438 1.339843-5 1.339843zm10-79.28125v51.960938l45-25.980469zm0 0"/><path d="m371.167969 158.886719c-5.523438 0-10.007813-4.480469-10.007813-10 0-5.523438 4.476563-10 9.996094-10h.011719c5.523437 0 10 4.476562 10 10 0 5.519531-4.476563 10-10 10zm0 0"/><path d="m456 51h-400c-5.519531 0-10 4.480469-10 10v198c0 5.519531 4.480469 10 10 10h400c5.519531 0 10-4.480469 10-10v-198c0-5.519531-4.480469-10-10-10zm-10 198h-368.871094l42.511719-42.511719c3.898437-3.898437 3.898437-10.226562 0-14.136719-3.910156-3.910156-10.242187-3.910156-14.140625 0l-39.5 39.5v-160.851562h368.890625l-42.53125 42.53125c-3.898437 3.910156-3.898437 10.238281 0 14.140625 1.949219 1.949219 4.511719 2.929687 7.070313 2.929687 2.558593 0 5.121093-.980468 7.070312-2.929687l39.5-39.5zm0 0"/><path d="m140.871094 181.136719c-5.519532 0-10.003906-4.476563-10.003906-10 0-5.523438 4.472656-10 9.996093-10h.007813c5.523437 0 10 4.476562 10 10 0 5.523437-4.476563 10-10 10zm0 0"/></svg>