<svg height="512pt" viewBox="0 -68 512 512" width="512pt" xmlns="http://www.w3.org/2000/svg"><path d="m446 176.109375v-126.109375c0-27.570312-22.429688-50-50-50h-280c-27.570312 0-50 22.429688-50 50v126.109375c-36.75 2.082031-66 32.628906-66 69.890625v120c0 5.519531 4.480469 10 10 10h101.148438c5.523437 0 10-4.480469 10-10v-10c0-16.539062 13.460937-30 30-30h212c16.542968 0 30 13.460938 30 30v10c0 5.519531 4.480468 10 10 10h98.851562c5.519531 0 10-4.480469 10-10v-120c0-37.261719-29.25-67.808594-66-69.890625zm-360-126.109375c0-16.539062 13.460938-30 30-30h280c16.539062 0 30 13.460938 30 30v126h-30v-30c0-22.058594-17.941406-40-40-40h-30c-22.058594 0-40 17.941406-40 40v30h-60v-30c0-22.058594-17.941406-40-40-40h-30c-22.058594 0-40 17.941406-40 40v30h-30zm290 96v30h-70v-30c0-11.03125 8.96875-20 20-20h30c11.03125 0 20 8.96875 20 20zm-170 0v30h-70v-30c0-11.03125 8.96875-20 20-20h30c11.03125 0 20 8.96875 20 20zm-136 50h372c24.679688 0 45.230469 17.96875 49.28125 41.5-12.203125 1.015625-23.355469 5.136719-34.242188 10.578125-9.589843 4.800781-17.867187 8.941406-36.007812 8.941406-18.191406 0-26.730469-4.167969-36.621094-8.988281-10.582031-5.160156-22.570312-11.011719-45.378906-11.011719-22.8125 0-34.800781 5.851563-45.382812 11.011719-9.886719 4.820312-18.429688 8.988281-36.617188 8.988281-18.191406 0-26.730469-4.167969-36.621094-8.988281-10.582031-5.160156-22.570312-11.011719-45.378906-11.011719-22.8125 0-34.800781 5.851563-45.382812 11.011719-9.886719 4.820312-18.429688 8.988281-36.617188 8.988281-18.242188 0-27.042969-4.191406-37.222656-9.03125-11.195313-5.398437-22.667969-9.347656-35.089844-10.5 4.050781-23.527343 24.609375-41.488281 49.28125-41.488281zm422 160h-78.851562c0-27.570312-22.429688-50-50-50h-212c-27.570313 0-50 22.429688-50 50h-81.148438v-98.5c9.75 1.167969 18.386719 4.328125 27.21875 8.550781 10.800781 5.140625 23.050781 10.96875 45.8125 10.96875 22.808594 0 34.796875-5.847656 45.378906-11.007812 9.890625-4.832031 18.429688-8.992188 36.621094-8.992188 18.1875 0 26.730469 4.160157 36.617188 8.992188 10.582031 5.160156 22.570312 11.007812 45.382812 11.007812 22.808594 0 34.796875-5.847656 45.378906-11.007812 9.890625-4.832031 18.429688-8.992188 36.621094-8.992188 18.1875 0 26.730469 4.160157 36.617188 8.992188 10.582031 5.160156 22.570312 11.007812 45.382812 11.007812 22.859375 0 34.597656-5.871093 44.957031-11.050781 8.398438-4.195312 16.597657-7.507812 26.011719-8.449219zm0 0"/><path d="m316 67h-80c-5.523438 0-10-4.476562-10-10s4.476562-10 10-10h80c5.523438 0 10 4.476562 10 10s-4.476562 10-10 10zm0 0"/><path d="m196.019531 67c-5.523437 0-10.003906-4.476562-10.003906-10s4.472656-10 9.996094-10h.007812c5.523438 0 10 4.476562 10 10s-4.476562 10-10 10zm0 0"/></svg>