<svg height="512pt" viewBox="0 -46 512.00005 512" width="512pt" xmlns="http://www.w3.org/2000/svg"><path d="m42.398438 159.445312c-2.652344 0-5.207032-1.050781-7.082032-2.925781l-29.824218-29.820312c-3.605469-3.605469-5.554688-8.398438-5.492188-13.496094.0664062-5.078125 2.125-9.800781 5.800781-13.292969 67.773438-64.429687 156.628907-99.910156 250.199219-99.910156s182.425781 35.480469 250.199219 99.910156c3.675781 3.492188 5.734375 8.210938 5.800781 13.292969.0625 5.101563-1.890625 9.894531-5.496094 13.5l-23.75 23.730469c-7.21875 7.210937-18.691406 7.355468-26.128906.335937-54.4375-51.4375-125.6875-79.765625-200.625-79.765625-78.015625 0-151.363281 30.371094-206.535156 85.515625-1.875 1.875-4.417969 2.925781-7.066406 2.925781zm-21.84375-45.964843 21.949218 21.941406c58.058594-54.515625 133.476563-84.417969 213.496094-84.417969 79.664062 0 155.4375 29.972656 213.488281 84.40625l21.953125-21.933594c-63.917968-60.292968-147.472656-93.476562-235.441406-93.476562s-171.527344 33.1875-235.445312 93.480469zm0 0"/><path d="m397.296875 228.121094c-4.519531 0-9.046875-1.640625-12.632813-4.941406-27.046874-24.898438-60.40625-41.304688-96.472656-47.453126-5.441406-.925781-9.105468-6.09375-8.175781-11.539062.929687-5.441406 6.078125-9.113281 11.539063-8.175781 39.460937 6.726562 75.988281 24.558593 105.71875 51.59375l21.960937-21.949219c-44.613281-41.054688-102.53125-63.644531-163.234375-63.644531-60.707031 0-118.621094 22.589843-163.234375 63.644531l21.960937 21.949219c26.035157-23.671875 57.753907-40.511719 91.800782-48.730469 5.375-1.296875 10.769531 2.007812 12.066406 7.375s-2.007812 10.769531-7.375 12.066406c-31.160156 7.519532-60.167969 23.035156-83.882812 44.863282-7.394532 6.804687-18.765626 6.550781-25.886719-.566407l-23.753907-23.746093c-3.628906-3.625-5.578124-8.445313-5.484374-13.574219.089843-5.066407 2.273437-9.953125 5.988281-13.410157 48.453125-45.058593 111.597656-69.871093 177.800781-69.871093s129.347656 24.8125 177.800781 69.871093c3.714844 3.457032 5.894531 8.34375 5.988281 13.410157.089844 5.128906-1.855468 9.949219-5.484374 13.574219l-23.753907 23.742187c-3.667969 3.664063-8.457031 5.511719-13.253906 5.511719zm0 0"/><path d="m325.070312 300.398438c-4.300781 0-8.625-1.5-12.1875-4.523438-15.847656-13.445312-36.050781-20.851562-56.882812-20.851562s-41.03125 7.40625-56.878906 20.851562c-7.519532 6.375-18.40625 5.964844-25.328125-.953125l-23.855469-23.84375c-3.648438-3.648437-5.648438-8.695313-5.488281-13.851563.15625-5.121093 2.441406-10 6.273437-13.382812 29.0625-25.679688 66.453125-39.824219 105.277344-39.824219s76.214844 14.144531 105.28125 39.828125c3.828125 3.378906 6.117188 8.257813 6.273438 13.378906.15625 5.15625-1.84375 10.203126-5.492188 13.851563l-23.855469 23.84375c-3.636719 3.636719-8.371093 5.476563-13.136719 5.476563zm-69.070312-45.375c25.1875 0 49.628906 8.824218 68.953125 24.871093l22.007813-22c-25.25-21.859375-57.492188-33.875-90.960938-33.875-33.464844 0-65.710938 12.019531-90.960938 33.875l22.011719 22c19.320313-16.046875 43.761719-24.871093 68.949219-24.871093zm0 0"/><path d="m256.054688 420c-31.429688 0-57-25.5625-57-56.984375 0-15.214844 5.925781-29.523437 16.6875-40.296875 10.769531-10.765625 25.082031-16.691406 40.3125-16.691406 15.214843 0 29.527343 5.925781 40.300781 16.683594 10.773437 10.78125 16.699219 25.09375 16.699219 40.304687 0 31.421875-25.570313 56.984375-57 56.984375zm0-93.972656c-9.890626 0-19.183594 3.847656-26.167969 10.832031-6.984375 6.992187-10.832031 16.28125-10.832031 26.15625 0 20.390625 16.597656 36.984375 37 36.984375 20.402343 0 37-16.59375 37-36.984375 0-9.875-3.851563-19.167969-10.839844-26.160156-6.988282-6.980469-16.28125-10.828125-26.160156-10.828125zm0 0"/><path d="m249.894531 172.953125c-5.523437 0-10.007812-4.476563-10.007812-10s4.476562-10 9.996093-10h.011719c5.523438 0 10 4.476563 10 10s-4.476562 10-10 10zm0 0"/></svg>