<svg height="512pt" viewBox="0 -49 512 511" width="512pt" xmlns="http://www.w3.org/2000/svg"><path d="m482 182.488281h-32v-12c0-5.519531-4.480469-10-10-10h-113c-5.519531 0-10 4.480469-10 10v12h-243v-131.988281c0-16.539062 13.460938-30 30-30 13.511719 0 24.960938 8.980469 28.699219 21.28125-22.140625 5.140625-38.699219 25.027344-38.699219 48.71875 0 5.519531 4.480469 10 10 10h80c5.519531 0 10-4.480469 10-10 0-24.441406-17.628906-44.839844-40.839844-49.160156-4.320312-23.210938-24.71875-40.839844-49.160156-40.839844-27.570312 0-50 22.429688-50 50v131.988281h-24c-16.539062 0-30 13.460938-30 30v20c0 77.191407 62.800781 139.992188 139.988281 139.992188h6.011719v10.019531c0 16.539062 13.460938 30 30 30h10c11.03125 0 20-8.96875 20-20v-20.019531h100v20.019531c0 11.03125 8.96875 20 20 20h10c16.539062 0 30-13.460938 30-30v-10.019531h6.011719c37.386719 0 72.539062-14.558594 98.988281-41 26.441406-26.449219 41-61.601563 41-98.992188v-20c0-16.539062-13.460938-30-30-30zm-338-121.988281c13.039062 0 24.160156 8.359375 28.289062 20h-56.578124c4.128906-11.640625 15.25-20 28.289062-20zm193 119.988281h93v61h-93zm0 81h93v10c0 5.511719-4.488281 10-10 10h-73c-5.511719 0-10-4.488281-10-10zm-317-49c0-5.507812 4.488281-10 10-10h287v20h-297zm166 180.011719h-10c-5.511719 0-10-4.488281-10-10v-10.019531h20l.011719 20.019531s0 0-.011719 0zm160-10c0 5.511719-4.488281 10-10 10h-10v-20.019531h20zm110.859375-65.160156c-22.667969 22.660156-52.808594 35.140625-84.847656 35.140625h-232.023438c-40.929687 0-77.136719-20.601563-98.789062-51.980469h63.800781c5.519531 0 10-4.480469 10-10s-4.480469-10-10-10h-74.980469c-5.167969-11.800781-8.5-24.601562-9.609375-38.011719h296.589844v29c0 16.542969 13.460938 30 30 30h73c16.539062 0 30-13.457031 30-30v-29h41.589844c-2.320313 28.28125-14.441406 54.550781-34.730469 74.851563zm35.140625-94.851563h-42v-20h32c5.511719 0 10 4.492188 10 10zm0 0"/><path d="m145.019531 300.5c-5.523437 0-10.003906-4.476562-10.003906-10s4.472656-10 9.996094-10h.007812c5.523438 0 10 4.476562 10 10s-4.476562 10-10 10zm0 0"/></svg>