<svg height="512pt" viewBox="0 0 512 512" width="512pt" xmlns="http://www.w3.org/2000/svg"><path d="m256 512c-68.378906 0-132.667969-26.628906-181.019531-74.980469-48.351563-48.351562-74.980469-112.640625-74.980469-181.019531s26.628906-132.667969 74.980469-181.019531c48.351562-48.351563 112.640625-74.980469 181.019531-74.980469s132.667969 26.628906 181.019531 74.980469c48.351563 48.351562 74.980469 112.640625 74.980469 181.019531s-26.628906 132.667969-74.980469 181.019531c-48.351562 48.351563-112.640625 74.980469-181.019531 74.980469zm0-492c-63.039062 0-122.304688 24.546875-166.878906 69.121094-44.574219 44.574218-69.121094 103.839844-69.121094 166.878906s24.546875 122.304688 69.121094 166.878906c44.574218 44.574219 103.839844 69.121094 166.878906 69.121094s122.304688-24.546875 166.878906-69.121094c44.574219-44.574218 69.121094-103.839844 69.121094-166.878906s-24.546875-122.304688-69.121094-166.878906c-44.574218-44.574219-103.839844-69.121094-166.878906-69.121094zm0 0"/><path d="m256 462c-113.589844 0-206-92.410156-206-206s92.410156-206 206-206 206 92.410156 206 206-92.410156 206-206 206zm0-392c-102.5625 0-186 83.4375-186 186s83.4375 186 186 186 186-83.4375 186-186-83.4375-186-186-186zm0 0"/><path d="m224 141c-5.519531 0-10 4.480469-10 10v70c0 5.511719-4.488281 10-10 10h-10v-35c0-5.519531-4.480469-10-10-10s-10 4.480469-10 10v35h-10c-5.511719 0-10-4.488281-10-10v-70c0-5.519531-4.480469-10-10-10s-10 4.480469-10 10v70c0 16.539062 13.460938 30 30 30h10v10h-10c-5.519531 0-10 4.480469-10 10v70c0 16.539062 13.460938 30 30 30s30-13.460938 30-30v-70c0-5.519531-4.480469-10-10-10h-10v-10h10c16.539062 0 30-13.460938 30-30v-70c0-5.519531-4.480469-10-10-10zm-30 200c0 5.511719-4.488281 10-10 10s-10-4.488281-10-10v-60h20zm0 0"/><path d="m346 141h-20c-27.570312 0-50 22.429688-50 50v80c0 5.519531 4.480469 10 10 10h10v60c0 16.539062 13.460938 30 30 30s30-13.460938 30-30v-190c0-5.519531-4.480469-10-10-10zm-50 50c0-16.539062 13.460938-30 30-30h10v100h-40zm40 150c0 5.511719-4.488281 10-10 10s-10-4.488281-10-10v-60h20zm0 0"/><path d="m184.019531 167c-5.523437 0-10.003906-4.476562-10.003906-10s4.472656-10 9.996094-10h.007812c5.523438 0 10 4.476562 10 10s-4.476562 10-10 10zm0 0"/></svg>