<svg height="512pt" viewBox="0 -66 512 512" width="512pt" xmlns="http://www.w3.org/2000/svg"><path d="m462 40h-4.011719c-4.636719-22.800781-24.847656-40-48.988281-40s-44.351562 17.199219-48.988281 40h-55.023438c-4.636719-22.800781-24.847656-40-48.988281-40s-44.351562 17.199219-48.988281 40h-54.023438c-4.636719-22.800781-24.847656-40-48.988281-40s-44.351562 17.199219-48.988281 40h-5.011719c-27.570312 0-50 22.429688-50 50v270c0 11.03125 8.96875 20 20 20h472c11.03125 0 20-8.96875 20-20v-270c0-27.570312-22.429688-50-50-50zm-53-20c13.039062 0 24.160156 8.359375 28.28125 20h-56.5625c4.121094-11.640625 15.242188-20 28.28125-20zm-153 0c13.039062 0 24.160156 8.359375 28.28125 20h-56.5625c4.121094-11.640625 15.242188-20 28.28125-20zm-152 0c13.039062 0 24.160156 8.359375 28.28125 20h-56.5625c4.121094-11.640625 15.242188-20 28.28125-20zm388 340-472 .011719s0 0 0-.011719v-240h472zm0-260h-472v-10c0-16.539062 13.460938-30 30-30h412c16.539062 0 30 13.460938 30 30zm0 0"/><path d="m90.21875 219.5c-16.542969 0-30-13.457031-30-30s13.457031-30 30-30c16.539062 0 30 13.457031 30 30s-13.460938 30-30 30zm0-40c-5.515625 0-10 4.484375-10 10s4.484375 10 10 10c5.511719 0 10-4.484375 10-10s-4.488281-10-10-10zm0 0"/><path d="m191.21875 219.5c-16.542969 0-30-13.457031-30-30s13.457031-30 30-30c16.539062 0 30 13.457031 30 30s-13.460938 30-30 30zm0-40c-5.515625 0-10 4.484375-10 10s4.484375 10 10 10c5.511719 0 10-4.484375 10-10s-4.488281-10-10-10zm0 0"/><path d="m291.21875 219.5c-16.542969 0-30-13.457031-30-30s13.457031-30 30-30c16.539062 0 30 13.457031 30 30s-13.460938 30-30 30zm0-40c-5.515625 0-10 4.484375-10 10s4.484375 10 10 10c5.511719 0 10-4.484375 10-10s-4.488281-10-10-10zm0 0"/><path d="m392.21875 219.5c-16.542969 0-30-13.457031-30-30s13.457031-30 30-30c16.539062 0 30 13.457031 30 30s-13.460938 30-30 30zm0-40c-5.515625 0-10 4.484375-10 10s4.484375 10 10 10c5.511719 0 10-4.484375 10-10s-4.488281-10-10-10zm0 0"/><path d="m457.464844 284.015625c-5.523438 0-10-4.476563-10-10v-105c0-5.519531 4.476562-10 10-10 5.523437 0 10 4.480469 10 10v105c0 5.523437-4.476563 10-10 10zm0 0"/><path d="m457.484375 320.015625c-5.523437 0-10.003906-4.476563-10.003906-10 0-5.519531 4.472656-10 9.996093-10h.007813c5.523437 0 10 4.480469 10 10 0 5.523437-4.476563 10-10 10zm0 0"/><path d="m90.21875 320.5c-16.542969 0-30-13.457031-30-30s13.457031-30 30-30c16.539062 0 30 13.457031 30 30s-13.460938 30-30 30zm0-40c-5.515625 0-10 4.484375-10 10s4.484375 10 10 10c5.511719 0 10-4.484375 10-10s-4.488281-10-10-10zm0 0"/><path d="m191.21875 320.5c-16.542969 0-30-13.457031-30-30s13.457031-30 30-30c16.539062 0 30 13.457031 30 30s-13.460938 30-30 30zm0-40c-5.515625 0-10 4.484375-10 10s4.484375 10 10 10c5.511719 0 10-4.484375 10-10s-4.488281-10-10-10zm0 0"/><path d="m291.21875 320.5c-16.542969 0-30-13.457031-30-30s13.457031-30 30-30c16.539062 0 30 13.457031 30 30s-13.460938 30-30 30zm0-40c-5.515625 0-10 4.484375-10 10s4.484375 10 10 10c5.511719 0 10-4.484375 10-10s-4.488281-10-10-10zm0 0"/><path d="m392.21875 320.5c-16.542969 0-30-13.457031-30-30s13.457031-30 30-30c16.539062 0 30 13.457031 30 30s-13.460938 30-30 30zm0-40c-5.515625 0-10 4.484375-10 10s4.484375 10 10 10c5.511719 0 10-4.484375 10-10s-4.488281-10-10-10zm0 0"/></svg>