<svg xmlns="http://www.w3.org/2000/svg" viewBox="0 0 46 46"><path fill="#fbb03b" d="M23,40a83.45,83.45,0,0,1-11.87-.85,5.08,5.08,0,0,1-4.28-4.28,83.35,83.35,0,0,1,0-23.73,5.08,5.08,0,0,1,4.28-4.28,83.42,83.42,0,0,1,23.73,0,5.08,5.08,0,0,1,4.28,4.28,83.35,83.35,0,0,1,0,23.73,5.08,5.08,0,0,1-4.28,4.28A83.45,83.45,0,0,1,23,40Z"/><path fill="#f6ffb8" d="M24,15.12l1.41,4.32a1,1,0,0,0,1,.73h4.55a1,1,0,0,1,.62,1.9l-3.68,2.67a1,1,0,0,0-.38,1.17l1.4,4.32A1,1,0,0,1,27.3,31.4l-3.68-2.67a1,1,0,0,0-1.23,0L18.7,31.4a1,1,0,0,1-1.61-1.17l1.4-4.32a1,1,0,0,0-.38-1.17l-3.68-2.67a1,1,0,0,1,.62-1.9H19.6a1,1,0,0,0,1-.73L22,15.12A1,1,0,0,1,24,15.12Z"/></svg>