<svg width="60" height="60" viewBox="0 0 60 60" fill="none" xmlns="http://www.w3.org/2000/svg">
<path d="M30 0C22.0463 0.008944 14.4208 3.17252 8.79668 8.79668C3.17252 14.4208 0.008944 22.0463 0 30C0.0135226 37.9523 3.17857 45.5751 8.80173 51.1983C14.4249 56.8214 22.0477 59.9865 30 60C37.9565 60 45.5871 56.8393 51.2132 51.2132C56.8393 45.5871 60 37.9565 60 30C60 22.0435 56.8393 14.4129 51.2132 8.7868C45.5871 3.16071 37.9565 0 30 0V0ZM48.2474 47.3108C46.5624 43.9126 43.9613 41.053 40.7376 39.0544C37.5139 37.0559 33.7958 35.9979 30.0028 36C26.2098 36.002 22.4929 37.064 19.2713 39.0661C16.0498 41.0681 13.4518 43.9306 11.7705 47.3306C7.28421 42.6783 4.78434 36.4629 4.8 30C4.8 23.3165 7.45499 16.9068 12.1809 12.1809C16.9068 7.45499 23.3165 4.8 30 4.8C36.6835 4.8 43.0932 7.45499 47.8191 12.1809C52.545 16.9068 55.2 23.3165 55.2 30C55.215 36.4535 52.7221 42.6604 48.2474 47.3108V47.3108ZM30 12C27.864 12 25.7759 12.6334 23.9998 13.8201C22.2238 15.0068 20.8395 16.6936 20.0221 18.667C19.2047 20.6405 18.9908 22.812 19.4075 24.907C19.8242 27.002 20.8528 28.9263 22.3632 30.4368C23.8737 31.9472 25.798 32.9758 27.893 33.3925C29.988 33.8092 32.1595 33.5953 34.133 32.7779C36.1064 31.9605 37.7932 30.5762 38.9799 28.8002C40.1666 27.0241 40.8 24.936 40.8 22.8C40.8 21.3817 40.5207 19.9773 39.9779 18.667C39.4351 17.3567 38.6396 16.1661 37.6368 15.1632C36.6339 14.1604 35.4433 13.3649 34.133 12.8221C32.8227 12.2794 31.4183 12 30 12V12Z" fill="black"/>
</svg>
