<svg id="Layer_1" data-name="Layer 1" xmlns="http://www.w3.org/2000/svg" viewBox="0 0 700 550"><title>explorer</title><path d="M542.65586,438.87238c-.96777-1.61133-23.75391-39.58593-27.44043-49.41406l.91992-.3457c3.6543,9.74511,27.126,48.86035,27.36231,49.2539Z" fill="#8b9d36"/><path d="M523.63058,368.60224a42.19255,42.19255,0,0,0-2.26874,7.60422,71.09312,71.09312,0,0,0-1.15954,7.70979,69.676,69.676,0,0,0-.31938,7.78963,41.62117,41.62117,0,0,0,.80085,7.89616,41.6597,41.6597,0,0,0,2.274-7.60381A69.787,69.787,0,0,0,524.112,384.288a71.08882,71.08882,0,0,0,.31411-7.79011A42.1548,42.1548,0,0,0,523.63058,368.60224Z" fill="#8b9d36"/><path d="M532.29311,380.44649a40.24435,40.24435,0,0,0-2.94394,7.1697,67.58855,67.58855,0,0,0-1.84961,7.37986,66.557,66.557,0,0,0-1.021,7.539,39.80386,39.80386,0,0,0,.0844,7.75121,39.7669,39.7669,0,0,0,2.94922-7.16868,66.55624,66.55624,0,0,0,1.84433-7.38094,67.69992,67.69992,0,0,0,1.01568-7.54A40.28246,40.28246,0,0,0,532.29311,380.44649Z" fill="#8b9d36"/><path d="M537.066,394.23531a34.14729,34.14729,0,0,0-2.50611,6.6642,56.72721,56.72721,0,0,0-1.40219,6.82173,55.77507,55.77507,0,0,0-.56731,6.94089,33.71539,33.71539,0,0,0,.54669,7.09993,33.71743,33.71743,0,0,0,2.51138-6.66348,55.683,55.683,0,0,0,1.39692-6.82245,56.72835,56.72835,0,0,0,.562-6.94167A34.1142,34.1142,0,0,0,537.066,394.23531Z" fill="#8b9d36"/><path d="M543.07667,407.99866a26.14112,26.14112,0,0,0-2.54112,5.67129,42.60113,42.60113,0,0,0-1.44248,5.861,41.8128,41.8128,0,0,0-.61142,6.00446,25.8381,25.8381,0,0,0,.49729,6.19592,25.818,25.818,0,0,0,2.54639-5.6704A41.88078,41.88078,0,0,0,542.963,420.199a42.66871,42.66871,0,0,0,.60615-6.00536A26.14121,26.14121,0,0,0,543.07667,407.99866Z" fill="#8b9d36"/><path d="M548.38,416.60124a23.5351,23.5351,0,0,0-2.68258,4.97961,40.58139,40.58139,0,0,0-1.68657,5.16567,46.36961,46.36961,0,0,0-1.01855,5.29743c-.1103.89915-.21148,1.79327-.27862,2.70465a20.12662,20.12662,0,0,1-.29636,2.76938,5.43721,5.43721,0,0,0,.65218-.41169l.52942-.5305a9.789,9.789,0,0,0,.926-1.15823,18.55144,18.55144,0,0,0,1.42377-2.47793,27.59313,27.59313,0,0,0,1.86831-5.225,30.9267,30.9267,0,0,0,.87949-5.44046A20.48082,20.48082,0,0,0,548.38,416.60124Z" fill="#8b9d36"/><path d="M518.47977,395.36638a33.83279,33.83279,0,0,0-5.97515-5.18132,55.37119,55.37119,0,0,0-6.60431-3.93821,54.399,54.399,0,0,0-7.081-2.99735,33.446,33.446,0,0,0-7.7159-1.74237,33.4365,33.4365,0,0,0,5.97179,5.18725,54.40472,54.40472,0,0,0,6.60767,3.93229,55.35025,55.35025,0,0,0,7.08386,2.99141A33.83014,33.83014,0,0,0,518.47977,395.36638Z" fill="#8b9d36"/><path d="M524.34894,406.32893a41.67761,41.67761,0,0,0-7.36967-4.82441,69.38828,69.38828,0,0,0-7.85977-3.52005,68.1486,68.1486,0,0,0-8.23045-2.533,41.20354,41.20354,0,0,0-8.72487-1.21619A41.21083,41.21083,0,0,0,499.531,399.066a68.1599,68.1599,0,0,0,7.86217,3.51382,69.37457,69.37457,0,0,0,8.23285,2.52673A41.67716,41.67716,0,0,0,524.34894,406.32893Z" fill="#8b9d36"/><path d="M531.25776,418.51421a35.54187,35.54187,0,0,0-6.64315-4.65783,58.40889,58.40889,0,0,0-7.15-3.35983,57.37332,57.37332,0,0,0-7.5332-2.37747,35.1306,35.1306,0,0,0-8.04439-1.067,35.14276,35.14276,0,0,0,6.64076,4.664,57.38073,57.38073,0,0,0,7.15244,3.35365,58.41586,58.41586,0,0,0,7.53559,2.3713A35.5404,35.5404,0,0,0,531.25776,418.51421Z" fill="#8b9d36"/><path d="M536.71788,427.89324a26.64494,26.64494,0,0,0-5.83464-3.84315,42.55406,42.55406,0,0,0-6.25089-2.51336,41.79032,41.79032,0,0,0-6.56643-1.50709,26.36178,26.36178,0,0,0-6.98651-.16467,26.35994,26.35994,0,0,0,5.83272,3.84944,41.78693,41.78693,0,0,0,6.25329,2.50707,42.53167,42.53167,0,0,0,6.56787,1.50068A26.65876,26.65876,0,0,0,536.71788,427.89324Z" fill="#8b9d36"/><path d="M541.028,436.30892a35.04538,35.04538,0,0,0-6.41345-4.873,57.51537,57.51537,0,0,0-6.96685-3.59432,56.51485,56.51485,0,0,0-7.386-2.62672,34.65077,34.65077,0,0,0-7.94464-1.33577,34.63861,34.63861,0,0,0,6.41058,4.87914,56.49369,56.49369,0,0,0,6.96972,3.58833,57.50565,57.50565,0,0,0,7.38838,2.62048A35.04393,35.04393,0,0,0,541.028,436.30892Z" fill="#8b9d36"/><path d="M516.57261,390.69974a24.6661,24.6661,0,0,0-.19134-7.87637,37.11321,37.11321,0,0,0-2.0069-7.16539,36.50374,36.50374,0,0,0-3.38224-6.62685,24.42012,24.42012,0,0,0-5.216-5.90909,24.40587,24.40587,0,0,0,.18223,7.87973,36.53649,36.53649,0,0,0,2.01554,7.162,37.11619,37.11619,0,0,0,3.39135,6.62344A24.67074,24.67074,0,0,0,516.57261,390.69974Z" fill="#8b9d36"/><path d="M546.26133,440.47688c-.01074-.6543-1.20313-65.67774-13.71192-85.4834l.83008-.52539c12.65528,20.04,13.82031,83.30957,13.86426,85.99316Z" fill="#50661a"/><path d="M537.03054,363.50673a45.00841,45.00841,0,0,1-.29444-8.85675,79.62269,79.62269,0,0,1,.95718-8.59149c.45844-2.83322,1.08233-5.63827,1.816-8.42.73275-2.80007,1.65827-5.4941,2.6471-8.36365a12.27276,12.27276,0,0,1,.63348,2.202,19.62464,19.62464,0,0,1,.34623,2.2375,37.91672,37.91672,0,0,1,.19949,4.44168,57.02936,57.02936,0,0,1-.7994,8.705,63.26508,63.26508,0,0,1-2.0141,8.47586A39.852,39.852,0,0,1,537.03054,363.50673Z" fill="#50661a"/><path d="M521.47358,323.4411a31.82216,31.82216,0,0,1,5.5402,7.11839,50.02721,50.02721,0,0,1,3.71313,7.80216,49.16021,49.16021,0,0,1,2.33059,8.31971,31.47885,31.47885,0,0,1,.48626,9.01,31.47825,31.47825,0,0,1-5.54883-7.11515,49.11556,49.11556,0,0,1-3.7045-7.80546,50.02705,50.02705,0,0,1-2.322-8.32295A31.80553,31.80553,0,0,1,521.47358,323.4411Z" fill="#50661a"/><path d="M511.04344,339.56621a73.3058,73.3058,0,0,1,7.29582,6.72252c2.25483,2.33743,4.40655,4.72713,6.51176,7.12978l6.25473,7.178c1.04925,1.17543,2.10952,2.33365,3.22974,3.43074a14.7477,14.7477,0,0,0,3.81671,2.88321,6.625,6.625,0,0,1-2.61209-.06624,12.22894,12.22894,0,0,1-2.51666-.79155,24.30472,24.30472,0,0,1-4.48232-2.57007,43.99217,43.99217,0,0,1-7.38357-6.83072,58.28712,58.28712,0,0,1-5.86725-8.01538A41.71562,41.71562,0,0,1,511.04344,339.56621Z" fill="#50661a"/><path d="M511.04344,355.69132a60.38188,60.38188,0,0,1,9.06966,5.5782,102.75292,102.75292,0,0,1,8.13743,6.61367,101.0124,101.0124,0,0,1,7.432,7.3973,59.70118,59.70118,0,0,1,6.49066,8.4426,59.6788,59.6788,0,0,1-9.07446-5.57329,100.93241,100.93241,0,0,1-8.1331-6.61858,102.74216,102.74216,0,0,1-7.42722-7.40222A60.37291,60.37291,0,0,1,511.04344,355.69132Z" fill="#50661a"/><path d="M512.1042,368.34319a59.7066,59.7066,0,0,1,9.16317,5.29911,101.54424,101.54424,0,0,1,8.25875,6.35849,99.79681,99.79681,0,0,1,7.57348,7.16017,59.035,59.035,0,0,1,6.65946,8.22955,59.00643,59.00643,0,0,1-9.168-5.294,99.73505,99.73505,0,0,1-8.254-6.36352,101.54161,101.54161,0,0,1-7.56916-7.1652A59.67742,59.67742,0,0,1,512.1042,368.34319Z" fill="#50661a"/><path d="M512.81105,381.86688a55.50953,55.50953,0,0,1,9.17852,4.45265,94.00315,94.00315,0,0,1,8.34507,5.569,92.43683,92.43683,0,0,1,7.714,6.414,54.852,54.852,0,0,1,6.87238,7.54117,54.90215,54.90215,0,0,1-9.18235-4.44732,92.43088,92.43088,0,0,1-8.34123-5.57443,94.06381,94.06381,0,0,1-7.70967-6.41938A55.50933,55.50933,0,0,1,512.81105,381.86688Z" fill="#50661a"/><path d="M512.1042,391.67816a61.7592,61.7592,0,0,1,9.6034,4.876,105.19852,105.19852,0,0,1,8.76083,5.98576,103.34715,103.34715,0,0,1,8.12352,6.82569,61.03233,61.03233,0,0,1,7.27232,7.9459,61.03767,61.03767,0,0,1-9.60723-4.87069,103.34674,103.34674,0,0,1-8.757-5.9911,105.17764,105.17764,0,0,1-8.1192-6.831A61.75272,61.75272,0,0,1,512.1042,391.67816Z" fill="#50661a"/><path d="M509.62926,400.87071a80.50865,80.50865,0,0,1,10.03835,5.57125c3.18706,2.04023,6.27055,4.197,9.27682,6.44816,3.01491,2.238,5.94638,4.57122,8.82605,6.98214,2.90941,2.39024,5.65769,4.87974,8.66781,7.34521a24.27091,24.27091,0,0,1-5.62077-1.64029,54.9646,54.9646,0,0,1-5.21938-2.51276,85.667,85.667,0,0,1-9.59189-6.24178,98.90225,98.90225,0,0,1-8.71384-7.35336A62.6445,62.6445,0,0,1,509.62926,400.87071Z" fill="#50661a"/><path d="M506.62394,410.41686a82.79705,82.79705,0,0,1,10.90057,5.18012c3.481,1.93923,6.85944,4.02142,10.16015,6.21319q4.9518,3.28665,9.66478,6.91188,2.35578,1.81771,4.66647,3.70078a41.58405,41.58405,0,0,0,4.737,3.62717,9.15027,9.15027,0,0,1-3.06238-.52594c-.98691-.29229-1.945-.64787-2.89263-1.01772-1.88989-.75025-3.716-1.6084-5.50711-2.51774a104.51156,104.51156,0,0,1-10.32511-6.09108,118.03312,118.03312,0,0,1-9.6106-7.1224A73.05117,73.05117,0,0,1,506.62394,410.41686Z" fill="#50661a"/><path d="M540.07758,374.73759a48.86029,48.86029,0,0,1,1.40891-9.45366,82.10015,82.10015,0,0,1,2.71711-8.97507,80.81193,80.81193,0,0,1,3.70785-8.6129,48.334,48.334,0,0,1,5.02853-8.12975,48.33871,48.33871,0,0,1-1.4022,9.45594,80.81087,80.81087,0,0,1-2.72382,8.97279,82.21219,82.21219,0,0,1-3.71409,8.61062A48.86,48.86,0,0,1,540.07758,374.73759Z" fill="#50661a"/><path d="M542.1732,385.77633a49.92683,49.92683,0,0,1,2.71327-9.27689,84.07429,84.07429,0,0,1,3.94571-8.62734,82.67483,82.67483,0,0,1,4.87891-8.13581,49.39471,49.39471,0,0,1,6.12333-7.48008,49.39559,49.39559,0,0,1-2.707,9.28,82.77563,82.77563,0,0,1-3.95194,8.62423,84.17792,84.17792,0,0,1-4.88466,8.13268A49.98977,49.98977,0,0,1,542.1732,385.77633Z" fill="#50661a"/><path d="M543.75906,396.45121a54.68712,54.68712,0,0,1,3.9716-9.31333,92.67383,92.67383,0,0,1,5.12588-8.53323,91.04911,91.04911,0,0,1,6.00008-7.94273,54.0748,54.0748,0,0,1,7.16539-7.15519,54.071,54.071,0,0,1-3.96633,9.31711,90.93978,90.93978,0,0,1-5.13163,8.52945,92.57358,92.57358,0,0,1-6.00536,7.93907A54.68979,54.68979,0,0,1,543.75906,396.45121Z" fill="#50661a"/><path d="M544.921,408.22845a70.51933,70.51933,0,0,1,5.686-9.99573q3.17006-4.73086,6.765-9.11384,3.58293-4.39279,7.58115-8.44643a69.42353,69.42353,0,0,1,8.6702-7.55621,69.41792,69.41792,0,0,1-5.68071,9.99992q-3.17,4.73061-6.76976,9.10965-3.59155,4.3864-7.58642,8.44223A70.43231,70.43231,0,0,1,544.921,408.22845Z" fill="#50661a"/><path d="M545.86427,420.44094a71.215,71.215,0,0,1,6.73331-9.39575q3.66422-4.39865,7.71542-8.40693,4.03971-4.01947,8.45777-7.6586a70.13852,70.13852,0,0,1,9.449-6.6603,70.14105,70.14105,0,0,1-6.72852,9.40043q-3.66422,4.3982-7.71974,8.40225-4.0476,4.01218-8.46255,7.65386A71.1876,71.1876,0,0,1,545.86427,420.44094Z" fill="#50661a"/><path d="M546.43829,428.27163a62.06381,62.06381,0,0,1,7.31548-7.943,105.74081,105.74081,0,0,1,8.15564-6.8315,103.87181,103.87181,0,0,1,8.79153-5.99038,61.35221,61.35221,0,0,1,9.64032-4.86829,61.36826,61.36826,0,0,1-7.31164,7.94824,103.95126,103.95126,0,0,1-8.15949,6.82622,105.8115,105.8115,0,0,1-8.79584,5.985A62.07535,62.07535,0,0,1,546.43829,428.27163Z" fill="#50661a"/><path d="M546.75287,434.81253a65.69877,65.69877,0,0,1,8.54648-7.106q4.48279-3.18676,9.23846-5.8965,4.74824-2.72309,9.76213-4.98123a64.92943,64.92943,0,0,1,10.46082-3.76025,64.938,64.938,0,0,1-8.5436,7.11174q-4.4828,3.18641-9.24134,5.89075-4.75326,2.71434-9.76548,4.97553A65.70991,65.70991,0,0,1,546.75287,434.81253Z" fill="#50661a"/><path d="M546.50878,439.0552a70.95547,70.95547,0,0,1,9.999-5.75936c3.43068-1.65623,6.92849-3.13191,10.48337-4.45295q5.3316-1.98333,10.84974-3.46424a69.92075,69.92075,0,0,1,11.33935-2.14525,69.92189,69.92189,0,0,1-9.99662,5.76559q-5.14674,2.48381-10.48577,4.44671c-3.55679,1.31588-7.17113,2.47722-10.85213,3.458A70.9459,70.9459,0,0,1,546.50878,439.0552Z" fill="#50661a"/><path d="M548.276,438.87238l-.8418-.50586c.23633-.39355,23.708-39.50879,27.3623-49.2539l.91993.3457C572.02988,399.28645,549.24375,437.26105,548.276,438.87238Z" fill="#5e7c24"/><path d="M567.30155,368.60224a42.1917,42.1917,0,0,1,2.26873,7.60422,71.09069,71.09069,0,0,1,1.15955,7.70979,69.676,69.676,0,0,1,.31937,7.78963,41.62115,41.62115,0,0,1-.80084,7.89616,41.659,41.659,0,0,1-2.274-7.60381,69.787,69.787,0,0,1-1.15427-7.71027,71.08882,71.08882,0,0,1-.3141-7.79011A42.154,42.154,0,0,1,567.30155,368.60224Z" fill="#5e7c24"/><path d="M558.639,380.44649a40.2451,40.2451,0,0,1,2.94394,7.1697,67.58855,67.58855,0,0,1,1.84961,7.37986,66.557,66.557,0,0,1,1.02095,7.539,39.80386,39.80386,0,0,1-.0844,7.75121,39.76685,39.76685,0,0,1-2.94921-7.16868,66.55851,66.55851,0,0,1-1.84434-7.38094,67.69755,67.69755,0,0,1-1.01567-7.54A40.28085,40.28085,0,0,1,558.639,380.44649Z" fill="#5e7c24"/><path d="M553.86609,394.23531a34.14665,34.14665,0,0,1,2.50611,6.6642,56.72725,56.72725,0,0,1,1.4022,6.82173,55.77506,55.77506,0,0,1,.5673,6.94089,33.71537,33.71537,0,0,1-.54668,7.09993,33.71748,33.71748,0,0,1-2.51139-6.66348,55.6849,55.6849,0,0,1-1.39692-6.82245,56.72834,56.72834,0,0,1-.562-6.94167A34.11418,34.11418,0,0,1,553.86609,394.23531Z" fill="#5e7c24"/><path d="M547.85546,407.99866a26.1416,26.1416,0,0,1,2.54112,5.67129,42.60109,42.60109,0,0,1,1.44247,5.861,41.80994,41.80994,0,0,1,.61142,6.00446,25.8381,25.8381,0,0,1-.49729,6.19592,25.8189,25.8189,0,0,1-2.54639-5.6704,41.88078,41.88078,0,0,1-1.43768-5.86185,42.6702,42.6702,0,0,1-.60615-6.00536A26.1407,26.1407,0,0,1,547.85546,407.99866Z" fill="#5e7c24"/><path d="M542.55215,416.60124a23.5356,23.5356,0,0,1,2.68259,4.97961,40.57975,40.57975,0,0,1,1.68656,5.16567,46.36964,46.36964,0,0,1,1.01856,5.29743c.11029.89915.21148,1.79327.27862,2.70465a20.12662,20.12662,0,0,0,.29636,2.76938,5.43729,5.43729,0,0,1-.65219-.41169l-.52942-.5305a9.78891,9.78891,0,0,1-.926-1.15823,18.55035,18.55035,0,0,1-1.42377-2.47793,27.59317,27.59317,0,0,1-1.86832-5.225,30.92856,30.92856,0,0,1-.87949-5.44046A20.48121,20.48121,0,0,1,542.55215,416.60124Z" fill="#5e7c24"/><path d="M572.45236,395.36638a33.83273,33.83273,0,0,1,5.97514-5.18132,55.37051,55.37051,0,0,1,6.60432-3.93821,54.39825,54.39825,0,0,1,7.081-2.99735,33.44615,33.44615,0,0,1,7.7159-1.74237,33.43615,33.43615,0,0,1-5.97179,5.18725,54.404,54.404,0,0,1-6.60767,3.93229,55.349,55.349,0,0,1-7.08386,2.99141A33.83017,33.83017,0,0,1,572.45236,395.36638Z" fill="#5e7c24"/><path d="M566.58319,406.32893a41.67761,41.67761,0,0,1,7.36967-4.82441,69.38893,69.38893,0,0,1,7.85976-3.52005,68.14931,68.14931,0,0,1,8.23046-2.533,41.20345,41.20345,0,0,1,8.72487-1.21619,41.21126,41.21126,0,0,1-7.3668,4.83065,68.16053,68.16053,0,0,1-7.86216,3.51382,69.37457,69.37457,0,0,1-8.23285,2.52673A41.67725,41.67725,0,0,1,566.58319,406.32893Z" fill="#5e7c24"/><path d="M559.67436,418.51421a35.54193,35.54193,0,0,1,6.64316-4.65783,58.40889,58.40889,0,0,1,7.15-3.35983,57.37318,57.37318,0,0,1,7.53319-2.37747,35.13075,35.13075,0,0,1,8.04439-1.067,35.14212,35.14212,0,0,1-6.64076,4.664,57.38127,57.38127,0,0,1-7.15243,3.35365,58.41635,58.41635,0,0,1-7.53559,2.3713A35.54049,35.54049,0,0,1,559.67436,418.51421Z" fill="#5e7c24"/><path d="M554.21425,427.89324a26.6447,26.6447,0,0,1,5.83464-3.84315,42.55394,42.55394,0,0,1,6.25088-2.51336,41.79084,41.79084,0,0,1,6.56643-1.50709,26.36187,26.36187,0,0,1,6.98652-.16467,26.35976,26.35976,0,0,1-5.83273,3.84944,41.78682,41.78682,0,0,1-6.25328,2.50707,42.53167,42.53167,0,0,1-6.56787,1.50068A26.65876,26.65876,0,0,1,554.21425,427.89324Z" fill="#5e7c24"/><path d="M549.90408,436.30892a35.04544,35.04544,0,0,1,6.41346-4.873,57.51537,57.51537,0,0,1,6.96685-3.59432,56.51524,56.51524,0,0,1,7.386-2.62672,34.65086,34.65086,0,0,1,7.94465-1.33577,34.63861,34.63861,0,0,1-6.41058,4.87914,56.4931,56.4931,0,0,1-6.96973,3.58833,57.50551,57.50551,0,0,1-7.38837,2.62048A35.04392,35.04392,0,0,1,549.90408,436.30892Z" fill="#5e7c24"/><path d="M574.35951,390.69974a24.66668,24.66668,0,0,1,.19134-7.87637,37.11321,37.11321,0,0,1,2.0069-7.16539,36.505,36.505,0,0,1,3.38224-6.62685,24.42012,24.42012,0,0,1,5.216-5.90909,24.40558,24.40558,0,0,1-.18223,7.87973,36.53716,36.53716,0,0,1-2.01553,7.162,37.1175,37.1175,0,0,1-3.39135,6.62344A24.67079,24.67079,0,0,1,574.35951,390.69974Z" fill="#5e7c24"/><path d="M157.34434,438.87238l-.8418-.50586c.23633-.39355,23.708-39.50879,27.36133-49.2539l.91992.3457C181.09824,399.28645,158.31211,437.26105,157.34434,438.87238Z" fill="#8b9d36"/><path d="M176.36942,368.60224a42.19255,42.19255,0,0,1,2.26874,7.60422,71.09312,71.09312,0,0,1,1.15954,7.70979,69.676,69.676,0,0,1,.31938,7.78963,41.62117,41.62117,0,0,1-.80085,7.89616,41.6597,41.6597,0,0,1-2.274-7.60381A69.787,69.787,0,0,1,175.888,384.288a71.08882,71.08882,0,0,1-.31411-7.79011A42.1548,42.1548,0,0,1,176.36942,368.60224Z" fill="#8b9d36"/><path d="M167.70689,380.44649a40.24435,40.24435,0,0,1,2.94394,7.1697,67.58855,67.58855,0,0,1,1.84961,7.37986,66.557,66.557,0,0,1,1.021,7.539,39.80386,39.80386,0,0,1-.0844,7.75121,39.7669,39.7669,0,0,1-2.94922-7.16868,66.55624,66.55624,0,0,1-1.84433-7.38094,67.69992,67.69992,0,0,1-1.01568-7.54A40.28246,40.28246,0,0,1,167.70689,380.44649Z" fill="#8b9d36"/><path d="M162.934,394.23531a34.14729,34.14729,0,0,1,2.50611,6.6642,56.72721,56.72721,0,0,1,1.40219,6.82173,55.77507,55.77507,0,0,1,.56731,6.94089,33.71539,33.71539,0,0,1-.54669,7.09993,33.71743,33.71743,0,0,1-2.51138-6.66348,55.683,55.683,0,0,1-1.39692-6.82245,56.72835,56.72835,0,0,1-.562-6.94167A34.1142,34.1142,0,0,1,162.934,394.23531Z" fill="#8b9d36"/><path d="M156.92333,407.99866a26.14112,26.14112,0,0,1,2.54112,5.67129,42.60113,42.60113,0,0,1,1.44248,5.861,41.8128,41.8128,0,0,1,.61142,6.00446,25.8381,25.8381,0,0,1-.49729,6.19592,25.818,25.818,0,0,1-2.54639-5.6704A41.88078,41.88078,0,0,1,157.037,420.199a42.66871,42.66871,0,0,1-.60615-6.00536A26.14121,26.14121,0,0,1,156.92333,407.99866Z" fill="#8b9d36"/><path d="M151.62,416.60124a23.5351,23.5351,0,0,1,2.68258,4.97961,40.58139,40.58139,0,0,1,1.68657,5.16567,46.36961,46.36961,0,0,1,1.01855,5.29743c.1103.89915.21148,1.79327.27862,2.70465a20.12662,20.12662,0,0,0,.29636,2.76938,5.43721,5.43721,0,0,1-.65218-.41169l-.52942-.5305a9.789,9.789,0,0,1-.926-1.15823,18.55144,18.55144,0,0,1-1.42377-2.47793,27.59313,27.59313,0,0,1-1.86831-5.225,30.9267,30.9267,0,0,1-.87949-5.44046A20.48082,20.48082,0,0,1,151.62,416.60124Z" fill="#8b9d36"/><path d="M181.52023,395.36638a33.83279,33.83279,0,0,1,5.97515-5.18132,55.37119,55.37119,0,0,1,6.60431-3.93821,54.399,54.399,0,0,1,7.081-2.99735,33.446,33.446,0,0,1,7.7159-1.74237,33.4365,33.4365,0,0,1-5.97179,5.18725,54.40472,54.40472,0,0,1-6.60767,3.93229,55.35025,55.35025,0,0,1-7.08386,2.99141A33.83014,33.83014,0,0,1,181.52023,395.36638Z" fill="#8b9d36"/><path d="M175.65106,406.32893a41.67761,41.67761,0,0,1,7.36967-4.82441,69.38828,69.38828,0,0,1,7.85977-3.52005,68.1486,68.1486,0,0,1,8.23045-2.533,41.20354,41.20354,0,0,1,8.72487-1.21619A41.21083,41.21083,0,0,1,200.469,399.066a68.1599,68.1599,0,0,1-7.86217,3.51382,69.37457,69.37457,0,0,1-8.23285,2.52673A41.67716,41.67716,0,0,1,175.65106,406.32893Z" fill="#8b9d36"/><path d="M168.74224,418.51421a35.54187,35.54187,0,0,1,6.64315-4.65783,58.40889,58.40889,0,0,1,7.15-3.35983,57.37332,57.37332,0,0,1,7.5332-2.37747,35.1306,35.1306,0,0,1,8.04439-1.067,35.14276,35.14276,0,0,1-6.64076,4.664,57.38073,57.38073,0,0,1-7.15244,3.35365,58.41586,58.41586,0,0,1-7.53559,2.3713A35.5404,35.5404,0,0,1,168.74224,418.51421Z" fill="#8b9d36"/><path d="M163.28212,427.89324a26.64494,26.64494,0,0,1,5.83464-3.84315,42.55406,42.55406,0,0,1,6.25089-2.51336,41.79032,41.79032,0,0,1,6.56643-1.50709,26.36178,26.36178,0,0,1,6.98651-.16467,26.35994,26.35994,0,0,1-5.83272,3.84944,41.78693,41.78693,0,0,1-6.25329,2.50707,42.53167,42.53167,0,0,1-6.56787,1.50068A26.65876,26.65876,0,0,1,163.28212,427.89324Z" fill="#8b9d36"/><path d="M158.972,436.30892a35.04538,35.04538,0,0,1,6.41345-4.873,57.51537,57.51537,0,0,1,6.96685-3.59432,56.51485,56.51485,0,0,1,7.386-2.62672,34.65077,34.65077,0,0,1,7.94464-1.33577,34.63861,34.63861,0,0,1-6.41058,4.87914,56.49369,56.49369,0,0,1-6.96972,3.58833,57.50565,57.50565,0,0,1-7.38838,2.62048A35.04393,35.04393,0,0,1,158.972,436.30892Z" fill="#8b9d36"/><path d="M183.42739,390.69974a24.6661,24.6661,0,0,1,.19134-7.87637,37.11321,37.11321,0,0,1,2.0069-7.16539,36.50374,36.50374,0,0,1,3.38224-6.62685,24.42012,24.42012,0,0,1,5.216-5.90909,24.40587,24.40587,0,0,1-.18223,7.87973,36.53649,36.53649,0,0,1-2.01554,7.162,37.11619,37.11619,0,0,1-3.39135,6.62344A24.67074,24.67074,0,0,1,183.42739,390.69974Z" fill="#8b9d36"/><path d="M153.73789,440.47688l-.98242-.01563c.04394-2.68359,1.21-65.95312,13.86523-85.99316l.83008.52539C154.942,374.80109,153.74863,439.82258,153.73789,440.47688Z" fill="#50661a"/><path d="M162.96946,363.50673a45.00841,45.00841,0,0,0,.29444-8.85675,79.62269,79.62269,0,0,0-.95718-8.59149c-.45844-2.83322-1.08233-5.63827-1.816-8.42-.73275-2.80007-1.65827-5.4941-2.6471-8.36365a12.27276,12.27276,0,0,0-.63348,2.202,19.62464,19.62464,0,0,0-.34623,2.2375,37.91672,37.91672,0,0,0-.19949,4.44168,57.02936,57.02936,0,0,0,.7994,8.705,63.26508,63.26508,0,0,0,2.0141,8.47586A39.852,39.852,0,0,0,162.96946,363.50673Z" fill="#50661a"/><path d="M178.52642,323.4411a31.82216,31.82216,0,0,0-5.5402,7.11839,50.02721,50.02721,0,0,0-3.71313,7.80216,49.16021,49.16021,0,0,0-2.33059,8.31971,31.47885,31.47885,0,0,0-.48626,9.01,31.47825,31.47825,0,0,0,5.54883-7.11515,49.11556,49.11556,0,0,0,3.7045-7.80546,50.02705,50.02705,0,0,0,2.322-8.32295A31.80553,31.80553,0,0,0,178.52642,323.4411Z" fill="#50661a"/><path d="M188.95656,339.56621a73.3058,73.3058,0,0,0-7.29582,6.72252c-2.25483,2.33743-4.40655,4.72713-6.51176,7.12978l-6.25473,7.178c-1.04925,1.17543-2.10952,2.33365-3.22974,3.43074a14.7477,14.7477,0,0,1-3.81671,2.88321,6.625,6.625,0,0,0,2.61209-.06624,12.22894,12.22894,0,0,0,2.51666-.79155,24.30472,24.30472,0,0,0,4.48232-2.57007,43.99217,43.99217,0,0,0,7.38357-6.83072,58.28712,58.28712,0,0,0,5.86725-8.01538A41.71562,41.71562,0,0,0,188.95656,339.56621Z" fill="#50661a"/><path d="M188.95656,355.69132a60.38188,60.38188,0,0,0-9.06966,5.5782,102.75292,102.75292,0,0,0-8.13743,6.61367,101.0124,101.0124,0,0,0-7.432,7.3973,59.70118,59.70118,0,0,0-6.49066,8.4426,59.6788,59.6788,0,0,0,9.07446-5.57329,100.93241,100.93241,0,0,0,8.1331-6.61858,102.74216,102.74216,0,0,0,7.42722-7.40222A60.37291,60.37291,0,0,0,188.95656,355.69132Z" fill="#50661a"/><path d="M187.8958,368.34319a59.7066,59.7066,0,0,0-9.16317,5.29911,101.54424,101.54424,0,0,0-8.25875,6.35849,99.79681,99.79681,0,0,0-7.57348,7.16017,59.035,59.035,0,0,0-6.65946,8.22955,59.00643,59.00643,0,0,0,9.168-5.294,99.73505,99.73505,0,0,0,8.254-6.36352,101.54161,101.54161,0,0,0,7.56916-7.1652A59.67742,59.67742,0,0,0,187.8958,368.34319Z" fill="#50661a"/><path d="M187.189,381.86688a55.50953,55.50953,0,0,0-9.17852,4.45265,94.00315,94.00315,0,0,0-8.34507,5.569,92.43683,92.43683,0,0,0-7.714,6.414,54.852,54.852,0,0,0-6.87238,7.54117,54.90215,54.90215,0,0,0,9.18235-4.44732,92.43088,92.43088,0,0,0,8.34123-5.57443,94.06381,94.06381,0,0,0,7.70967-6.41938A55.50933,55.50933,0,0,0,187.189,381.86688Z" fill="#50661a"/><path d="M187.8958,391.67816a61.7592,61.7592,0,0,0-9.6034,4.876,105.19852,105.19852,0,0,0-8.76083,5.98576,103.34715,103.34715,0,0,0-8.12352,6.82569,61.03233,61.03233,0,0,0-7.27232,7.9459,61.03767,61.03767,0,0,0,9.60723-4.87069,103.34674,103.34674,0,0,0,8.757-5.9911,105.17764,105.17764,0,0,0,8.1192-6.831A61.75272,61.75272,0,0,0,187.8958,391.67816Z" fill="#50661a"/><path d="M190.37074,400.87071a80.50865,80.50865,0,0,0-10.03835,5.57125c-3.18706,2.04023-6.27055,4.197-9.27682,6.44816-3.01491,2.238-5.94638,4.57122-8.826,6.98214-2.90941,2.39024-5.65769,4.87974-8.66781,7.34521a24.27091,24.27091,0,0,0,5.62077-1.64029,54.9646,54.9646,0,0,0,5.21938-2.51276,85.667,85.667,0,0,0,9.59189-6.24178,98.90225,98.90225,0,0,0,8.71384-7.35336A62.6445,62.6445,0,0,0,190.37074,400.87071Z" fill="#50661a"/><path d="M193.37606,410.41686a82.79705,82.79705,0,0,0-10.90057,5.18012c-3.481,1.93923-6.85944,4.02142-10.16015,6.21319q-4.9518,3.28665-9.66478,6.91188-2.35578,1.81771-4.66647,3.70078a41.58405,41.58405,0,0,1-4.737,3.62717,9.15027,9.15027,0,0,0,3.06238-.52594c.98691-.29229,1.945-.64787,2.89263-1.01772,1.88989-.75025,3.716-1.6084,5.50711-2.51774a104.51156,104.51156,0,0,0,10.32511-6.09108,118.03312,118.03312,0,0,0,9.6106-7.1224A73.05117,73.05117,0,0,0,193.37606,410.41686Z" fill="#50661a"/><path d="M159.92242,374.73759a48.86029,48.86029,0,0,0-1.40891-9.45366,82.10015,82.10015,0,0,0-2.71711-8.97507,80.81193,80.81193,0,0,0-3.70785-8.6129,48.334,48.334,0,0,0-5.02853-8.12975,48.33871,48.33871,0,0,0,1.4022,9.45594,80.81087,80.81087,0,0,0,2.72382,8.97279,82.21219,82.21219,0,0,0,3.71409,8.61062A48.86,48.86,0,0,0,159.92242,374.73759Z" fill="#50661a"/><path d="M157.8268,385.77633a49.92683,49.92683,0,0,0-2.71327-9.27689,84.07429,84.07429,0,0,0-3.94571-8.62734,82.67483,82.67483,0,0,0-4.87891-8.13581,49.39471,49.39471,0,0,0-6.12333-7.48008,49.39559,49.39559,0,0,0,2.707,9.28,82.77563,82.77563,0,0,0,3.95194,8.62423,84.17792,84.17792,0,0,0,4.88466,8.13268A49.98977,49.98977,0,0,0,157.8268,385.77633Z" fill="#50661a"/><path d="M156.24094,396.45121a54.68712,54.68712,0,0,0-3.9716-9.31333,92.67383,92.67383,0,0,0-5.12588-8.53323,91.04911,91.04911,0,0,0-6.00008-7.94273,54.0748,54.0748,0,0,0-7.16539-7.15519,54.071,54.071,0,0,0,3.96633,9.31711,90.93978,90.93978,0,0,0,5.13163,8.52945,92.57358,92.57358,0,0,0,6.00536,7.93907A54.68979,54.68979,0,0,0,156.24094,396.45121Z" fill="#50661a"/><path d="M155.079,408.22845a70.51933,70.51933,0,0,0-5.686-9.99573q-3.17006-4.73086-6.765-9.11384-3.58293-4.39279-7.58115-8.44643a69.42353,69.42353,0,0,0-8.6702-7.55621,69.41792,69.41792,0,0,0,5.68071,9.99992q3.17,4.73061,6.76976,9.10965,3.59155,4.3864,7.58642,8.44223A70.43231,70.43231,0,0,0,155.079,408.22845Z" fill="#50661a"/><path d="M154.13573,420.44094a71.215,71.215,0,0,0-6.73331-9.39575q-3.66422-4.39865-7.71542-8.40693-4.03971-4.01947-8.45777-7.6586a70.13852,70.13852,0,0,0-9.449-6.6603,70.14105,70.14105,0,0,0,6.72852,9.40043q3.66422,4.3982,7.71974,8.40225,4.0476,4.01218,8.46255,7.65386A71.1876,71.1876,0,0,0,154.13573,420.44094Z" fill="#50661a"/><path d="M153.56171,428.27163a62.06381,62.06381,0,0,0-7.31548-7.943,105.74081,105.74081,0,0,0-8.15564-6.8315,103.87181,103.87181,0,0,0-8.79153-5.99038,61.35221,61.35221,0,0,0-9.64032-4.86829,61.36826,61.36826,0,0,0,7.31164,7.94824,103.95126,103.95126,0,0,0,8.15949,6.82622,105.8115,105.8115,0,0,0,8.79584,5.985A62.07535,62.07535,0,0,0,153.56171,428.27163Z" fill="#50661a"/><path d="M153.24713,434.81253a65.69877,65.69877,0,0,0-8.54648-7.106q-4.4828-3.18676-9.23846-5.8965-4.74823-2.72309-9.76213-4.98123a64.92943,64.92943,0,0,0-10.46082-3.76025,64.938,64.938,0,0,0,8.5436,7.11174q4.4828,3.18641,9.24134,5.89075,4.75326,2.71434,9.76548,4.97553A65.70991,65.70991,0,0,0,153.24713,434.81253Z" fill="#50661a"/><path d="M153.49122,439.0552a70.95547,70.95547,0,0,0-9.999-5.75936c-3.43068-1.65623-6.92849-3.13191-10.48337-4.45295q-5.3316-1.98333-10.84974-3.46424a69.92075,69.92075,0,0,0-11.33935-2.14525,69.92189,69.92189,0,0,0,9.99662,5.76559q5.14674,2.48381,10.48577,4.44671c3.55679,1.31588,7.17113,2.47722,10.85213,3.458A70.9459,70.9459,0,0,0,153.49122,439.0552Z" fill="#50661a"/><path d="M151.77305,438.71711c-.96778-1.61133-23.75391-39.58594-27.44043-49.41406l.91992-.34571c3.6543,9.74512,27.126,48.86036,27.3623,49.25391Z" fill="#5e7c24"/><path d="M132.69845,368.60224a42.1917,42.1917,0,0,0-2.26873,7.60422,71.09069,71.09069,0,0,0-1.15955,7.70979,69.676,69.676,0,0,0-.31937,7.78963,41.62115,41.62115,0,0,0,.80084,7.89616,41.659,41.659,0,0,0,2.274-7.60381,69.787,69.787,0,0,0,1.15427-7.71027,71.08882,71.08882,0,0,0,.3141-7.79011A42.154,42.154,0,0,0,132.69845,368.60224Z" fill="#5e7c24"/><path d="M141.361,380.44649a40.2451,40.2451,0,0,0-2.94394,7.1697,67.58855,67.58855,0,0,0-1.84961,7.37986,66.557,66.557,0,0,0-1.02095,7.539,39.80386,39.80386,0,0,0,.0844,7.75121,39.76685,39.76685,0,0,0,2.94921-7.16868,66.55851,66.55851,0,0,0,1.84434-7.38094,67.69755,67.69755,0,0,0,1.01567-7.54A40.28085,40.28085,0,0,0,141.361,380.44649Z" fill="#5e7c24"/><path d="M146.13391,394.23531a34.14665,34.14665,0,0,0-2.50611,6.6642,56.72725,56.72725,0,0,0-1.4022,6.82173,55.77506,55.77506,0,0,0-.5673,6.94089,33.71537,33.71537,0,0,0,.54668,7.09993,33.71748,33.71748,0,0,0,2.51139-6.66348,55.6849,55.6849,0,0,0,1.39692-6.82245,56.72834,56.72834,0,0,0,.562-6.94167A34.11418,34.11418,0,0,0,146.13391,394.23531Z" fill="#5e7c24"/><path d="M152.14454,407.99866a26.1416,26.1416,0,0,0-2.54112,5.67129,42.60109,42.60109,0,0,0-1.44247,5.861,41.80994,41.80994,0,0,0-.61142,6.00446,25.8381,25.8381,0,0,0,.49729,6.19592,25.8189,25.8189,0,0,0,2.54639-5.6704,41.88078,41.88078,0,0,0,1.43768-5.86185,42.6702,42.6702,0,0,0,.60615-6.00536A26.1407,26.1407,0,0,0,152.14454,407.99866Z" fill="#5e7c24"/><path d="M157.44785,416.60124a23.5356,23.5356,0,0,0-2.68259,4.97961,40.57975,40.57975,0,0,0-1.68656,5.16567,46.36964,46.36964,0,0,0-1.01856,5.29743c-.11029.89915-.21148,1.79327-.27862,2.70465a20.12662,20.12662,0,0,1-.29636,2.76938,5.43729,5.43729,0,0,0,.65219-.41169l.52942-.5305a9.78891,9.78891,0,0,0,.926-1.15823,18.55035,18.55035,0,0,0,1.42377-2.47793,27.59317,27.59317,0,0,0,1.86832-5.225,30.92856,30.92856,0,0,0,.87949-5.44046A20.48121,20.48121,0,0,0,157.44785,416.60124Z" fill="#5e7c24"/><path d="M127.54764,395.36638a33.83273,33.83273,0,0,0-5.97514-5.18132,55.37051,55.37051,0,0,0-6.60432-3.93821,54.39825,54.39825,0,0,0-7.081-2.99735,33.44615,33.44615,0,0,0-7.7159-1.74237,33.43615,33.43615,0,0,0,5.97179,5.18725,54.404,54.404,0,0,0,6.60767,3.93229,55.349,55.349,0,0,0,7.08386,2.99141A33.83017,33.83017,0,0,0,127.54764,395.36638Z" fill="#5e7c24"/><path d="M133.41681,406.32893a41.67761,41.67761,0,0,0-7.36967-4.82441,69.38893,69.38893,0,0,0-7.85976-3.52005,68.14931,68.14931,0,0,0-8.23046-2.533,41.20345,41.20345,0,0,0-8.72487-1.21619,41.21126,41.21126,0,0,0,7.3668,4.83065,68.16053,68.16053,0,0,0,7.86216,3.51382,69.37457,69.37457,0,0,0,8.23285,2.52673A41.67725,41.67725,0,0,0,133.41681,406.32893Z" fill="#5e7c24"/><path d="M140.32564,418.51421a35.54193,35.54193,0,0,0-6.64316-4.65783,58.40889,58.40889,0,0,0-7.15-3.35983,57.37318,57.37318,0,0,0-7.53319-2.37747,35.13075,35.13075,0,0,0-8.04439-1.067,35.14212,35.14212,0,0,0,6.64076,4.664,57.38127,57.38127,0,0,0,7.15243,3.35365,58.41635,58.41635,0,0,0,7.53559,2.3713A35.54049,35.54049,0,0,0,140.32564,418.51421Z" fill="#5e7c24"/><path d="M145.78575,427.89324a26.6447,26.6447,0,0,0-5.83464-3.84315,42.55394,42.55394,0,0,0-6.25088-2.51336,41.79084,41.79084,0,0,0-6.56643-1.50709,26.36187,26.36187,0,0,0-6.98652-.16467,26.35976,26.35976,0,0,0,5.83273,3.84944,41.78682,41.78682,0,0,0,6.25328,2.50707,42.53167,42.53167,0,0,0,6.56787,1.50068A26.65876,26.65876,0,0,0,145.78575,427.89324Z" fill="#5e7c24"/><path d="M150.09592,436.30892a35.04544,35.04544,0,0,0-6.41346-4.873,57.51537,57.51537,0,0,0-6.96685-3.59432,56.51524,56.51524,0,0,0-7.386-2.62672,34.65086,34.65086,0,0,0-7.94465-1.33577,34.63861,34.63861,0,0,0,6.41058,4.87914,56.4931,56.4931,0,0,0,6.96973,3.58833,57.50551,57.50551,0,0,0,7.38837,2.62048A35.04392,35.04392,0,0,0,150.09592,436.30892Z" fill="#5e7c24"/><path d="M125.64049,390.69974a24.66668,24.66668,0,0,0-.19134-7.87637,37.11321,37.11321,0,0,0-2.0069-7.16539,36.505,36.505,0,0,0-3.38224-6.62685,24.42012,24.42012,0,0,0-5.216-5.90909,24.40558,24.40558,0,0,0,.18223,7.87973,36.53716,36.53716,0,0,0,2.01553,7.162,37.1175,37.1175,0,0,0,3.39135,6.62344A24.67079,24.67079,0,0,0,125.64049,390.69974Z" fill="#5e7c24"/><path d="M244.26836,395.161c-44.217-46.79444-49.07329-216.20993,45.18127-203.074,49.61366,6.91455,142.64146-12.23617,205.30525-33.61574,60.93193-20.78842,23.98871,137.71352-45.18123,203.07364S288.48541,441.95539,244.26836,395.161Z" fill="#d5efc8"/><path d="M232.55722,408.2079c23.58816,24.96338,60.10738,34.85882,102.83067,27.86288,42.64512-6.98181,86.38422-29.96554,123.16052-64.71742,27.64977-26.1267,53.66-69.51161,69.57557-116.05127,15.20372-44.45925,18.24664-82.68688,7.94052-99.76614-5.76018-9.54558-15.61826-12.26652-28.50892-7.86838l.35572,1.04077c12.517-4.2701,21.67275-1.78206,27.21081,7.39595,10.14285,16.80815,7.06234,54.68245-8.04009,98.84177-15.8599,46.37949-41.762,89.59545-69.28949,115.60833-36.61853,34.60116-80.15247,57.48346-122.58212,64.43074-42.35185,6.9353-78.5241-2.84374-101.85423-27.53311Z" fill="#d5efc8"/><path d="M310.05765,259.09567a24.68035,24.68035,0,0,1,2.31894,14.89239,3.20964,3.20964,0,0,1-1.563,2.36191,1.418,1.418,0,0,1-1.03138.20664c-1.33471-.31348-2.04052-3.24707-1.87622-7.40088a28.48189,28.48189,0,0,0-1.45935,5.10742c-.86743,4.646-.05468,6.78516-1.355,7.71387-1.49182,1.06543-4.95874-.0376-6.67126-2.29346-1.891-2.49072-1.19031-5.96972.28821-12.82617a79.61566,79.61566,0,0,1,2.08715-7.76172Z" fill="#f9977a"/><path d="M596.92148,441.46906H103.07871a1,1,0,0,1,0-2H596.92148a1,1,0,0,1,0,2Z" fill="#935b50"/><path d="M324.01959,409.78147l-1.78784,10.23982s-11.15233,15.2846-19.11191,2.13386l2.6283-12.37368Z" fill="#f9977a"/><path d="M351.88522,409.89107l-4.1371,21.524s13.66565,5.88337,21.62523-7.26737l-1.00008-13.76805Z" fill="#f9977a"/><path d="M370.80846,250.57971l1.78736,161.8897a2.25461,2.25461,0,0,1-2.25117,2.13016h-20.954a2.25461,2.25461,0,0,1-2.25332-2.33118l-5.04271-147.04465-16.49169,147.5198a2.25462,2.25462,0,0,1-2.21911,1.856H304.60811a2.25461,2.25461,0,0,1-2.23431-2.55649l13.85308-161.46337Z" fill="#ffba55"/><polygon points="356.65 248.519 357.386 269.275 358.042 290.034 359.348 331.552 360.479 373.074 361.042 393.836 361.522 414.6 360.784 393.843 360.129 373.085 358.823 331.567 357.693 290.045 357.131 269.283 356.65 248.519" fill="#e6952a"/><polygon points="331.254 248.519 329.171 269.293 327.006 290.058 322.673 331.587 318.165 373.098 315.908 393.853 313.57 414.6 315.652 393.826 317.817 373.061 322.151 331.532 326.659 290.021 328.916 269.266 331.254 248.519" fill="#e6952a"/><path d="M361.522,250.57966a41.71655,41.71655,0,0,0,.77038,5.176,26.20738,26.20738,0,0,0,1.52893,4.96167,13.72372,13.72372,0,0,0,2.7472,4.3313,9.16364,9.16364,0,0,0,4.4281,2.563,8.84883,8.84883,0,0,1-2.53174-.7439,9.2423,9.2423,0,0,1-2.18066-1.53076,13.34478,13.34478,0,0,1-2.94654-4.41357,23.784,23.784,0,0,1-1.44116-5.09155A26.21383,26.21383,0,0,1,361.522,250.57966Z" fill="#e6952a"/><path d="M324.90085,253.63972a27.15788,27.15788,0,0,1-3.2882,7.41308,12.643,12.643,0,0,1-2.739,3.05078,5.60155,5.60155,0,0,1-1.84729.936,3.51122,3.51122,0,0,1-2.03357-.07593,4.3388,4.3388,0,0,0,3.63013-1.178,13.52647,13.52647,0,0,0,2.55127-3.02295,32.79905,32.79905,0,0,0,2.00012-3.47387C323.78684,256.09528,324.35239,254.87482,324.90085,253.63972Z" fill="#e6952a"/><path d="M322.23175,420.02129s9.76528,12.19783,4.35275,19.38728a3.00837,3.00837,0,0,1-2.42119,1.18232l-48.41342-.26283a1.57834,1.57834,0,0,1-1.55425-1.764c.27786-2.508,17.69552-6.75172,28.9242-16.40891C303.11984,422.15515,317.67467,426.33788,322.23175,420.02129Z" fill="#935b50"/><path d="M349.975,420.02129s-9.76528,12.19783-4.35275,19.38728a3.00835,3.00835,0,0,0,2.42119,1.18232l48.41341-.26283a1.57834,1.57834,0,0,0,1.55425-1.764c-.27785-2.508-17.69552-6.75172-28.92419-16.40891C369.08687,422.15515,354.532,426.33788,349.975,420.02129Z" fill="#935b50"/><path d="M366.11521,123.26779l-.67116,9.71477a55.81161,55.81161,0,0,0,.59874,11.79244c.70662,4.91338-.62173,9.21128-3.53314,11.30308a8.25722,8.25722,0,0,1-4.61254,1.46777v9.77258c.5342,7.83251-2.20675,14.32106-5.85484,15.34052-4.22252,1.17974-11.73365-4.38821-14.25784-15.34052V144.462s-8.21809-1.51408-3.46022-9.62412a34.95688,34.95688,0,0,0,4.86592-15.57108l8.86692-6.70434Z" fill="#f9977a"/><path d="M346.00352,127.44855a.60057.60057,0,0,1-.29883-1.12207c3.27246-1.87011,6.80469-.08789,6.95312-.01269a.60077.60077,0,0,1-.5498,1.06836c-.03028-.01563-3.11035-1.55274-5.80762-.0127A.59625.59625,0,0,1,346.00352,127.44855Z" fill="#1e1d22"/><path d="M357.89805,127.44855a.60058.60058,0,0,1-.29883-1.12207c3.27344-1.87011,6.80469-.08789,6.95312-.01269a.60077.60077,0,0,1-.5498,1.06836c-.03125-.01563-3.11035-1.55274-5.80762-.0127A.59625.59625,0,0,1,357.89805,127.44855Z" fill="#1e1d22"/><path d="M361.68177,135.34261a1.8033,1.8033,0,0,0,0-3.60443,1.8033,1.8033,0,0,0,0,3.60443Z" fill="#1e1d22"/><path d="M349.35463,135.23447a1.80329,1.80329,0,0,0,0-3.60442,1.80329,1.80329,0,0,0,0,3.60442Z" fill="#1e1d22"/><path d="M357.43516,141.93293l-.15821-.99805a1.198,1.198,0,0,0,.9834-.66894c.88086-1.82422-1.374-6.55176-2.31738-8.21973l.88086-.49805c.37305.66114,3.61426,6.53321,2.34668,9.15723A2.20755,2.20755,0,0,1,357.43516,141.93293Z" fill="#dd765e"/><ellipse cx="352.93091" cy="146.13787" rx="3.45235" ry="2.75739" fill="#dd2f22"/><path d="M357.89712,157.54588s-6.488-.33138-9.62382-3.30154c0,0,4.00091,7.95125,9.62382,9.03257Z" fill="#dd765e"/><path d="M370.87305,120.34819s-.10813-4.43344-7.89369-6.37983-9.29942-6.27171-13.78693-5.08225a14.74539,14.74539,0,0,0-7.299,5.08225s-14.09342-2.15622-7.263,20.33218c0,0,5.10032,5.94409,5.641.64558s1.73013-14.38166,4.64971-16.76058,7.46117,0,9.19129,1.29759,12.54341,8.975,13.62473,8.32623S373.14384,125.863,370.87305,120.34819Z" fill="#1e1d22"/><path d="M392.16088,197.89342l7.20173-7.7071s-.88442-4.29577,6.82268-4.29577,9.72865-2.02154,9.72865-2.02154,2.14788-.12634.88442,1.89519-4.80115,3.53769-5.30653,3.664,5.70463,1.4522,5.70463,1.4522,5.54016-4.23181,6.42459-.82047c0,0,2.77961-.75964,2.77961.82047,0,0,2.27423.56934,1.51615,1.95914,0,0,1.32019,1.01077.15471,1.89519s-8.24085,4.42211-8.24085,4.42211-15.16153-.88442-16.29864,0-4.54846,6.44365-4.54846,6.44365Z" fill="#f9977a"/><path d="M411.61814,194.734c-1.13342-.83655-2.24023-1.65809-3.40015-2.40088-.57678-.37561-1.17395-.71119-1.77612-1.04468a20.05453,20.05453,0,0,0-1.899-.84937,8.67365,8.67365,0,0,1,3.95935,1.45118,13.242,13.242,0,0,1,1.68042,1.29235A10.45663,10.45663,0,0,1,411.61814,194.734Z" fill="#dd765e"/><path d="M423.62107,190.06a26.63545,26.63545,0,0,1-3.49609,1.80457c-.60254.25513-1.20545.50928-1.82459.72607a19.4616,19.4616,0,0,1-1.8811.59595,19.50939,19.50939,0,0,1,1.71985-.96728c.58117-.30432,1.17846-.57129,1.77624-.83728A26.64166,26.64166,0,0,1,423.62107,190.06Z" fill="#dd765e"/><path d="M426.40061,190.88044a40.97975,40.97975,0,0,1-4.17126,2.538c-.71875.37915-1.438.75745-2.17652,1.09973-.73608.347-1.47595.68677-2.24365.97474.66418-.48084,1.3562-.90979,2.052-1.33155.69348-.42639,1.40613-.81689,2.11926-1.20642A40.98027,40.98027,0,0,1,426.40061,190.88044Z" fill="#dd765e"/><path d="M427.91685,192.83955a31.05407,31.05407,0,0,1-3.60181,2.2528c-.624.33179-1.24854.66248-1.89246.95752-.64148.29969-1.28686.592-1.9602.83277.56909-.43311,1.16614-.81458,1.76709-1.18872.59851-.37891,1.21631-.72193,1.83471-1.06409A31.05978,31.05978,0,0,1,427.91685,192.83955Z" fill="#dd765e"/><path d="M419.07261,196.88264a29.80192,29.80192,0,0,1-2.44605-1.80078c-.78357-.63269-1.547-1.25745-2.3551-1.89527a5.734,5.734,0,0,1,1.417.61365,9.96124,9.96124,0,0,1,1.26673.87073,11.78566,11.78566,0,0,1,1.13171,1.03235A8.82424,8.82424,0,0,1,419.07261,196.88264Z" fill="#dd765e"/><path d="M399.489,206.3586,391.15,196.63l-5.68547,6.44377s-2.65328-29.1859-11.87655-33.73443-15.54058-6.94913-15.54058-6.94913c.6249,7.42468-5.22586,13.03766-10.54991,12.8243-5.421-.21721-10.87432-6.498-9.41272-13.96124-5.30551.77167-19.32974.24779-24.89,11.24472C307.509,183.74268,297.65413,219.625,297.65413,219.625L299.49337,260.55h13.32694l2.64853-40.546,7.328-21.226-6.57,51.80182a69.07172,69.07172,0,0,0,54.58155,0v-13.2032s10.80259-2.27414,14.59282-6.82267C389.19174,226.00557,399.489,206.3586,399.489,206.3586Z" fill="#6c7fd8"/><path d="M373.84067,216.43464c1.7732-2.36939,3.70008-4.6062,5.61414-6.85376.98425-1.09985,1.95142-2.21484,2.95166-3.30066,1.00061-1.08557,2.00732-2.16553,3.05811-3.20667-.8866,1.18592-1.81727,2.33265-2.75391,3.474-.93713,1.141-1.90723,2.25281-2.86023,3.37976C377.88987,212.13337,375.94211,214.35065,373.84067,216.43464Z" fill="#065082"/><path d="M370.80845,237.37653c-.42053-4.28369-.64221-8.58715-.73218-12.89233-.092-4.30591-.01282-8.6145.1604-12.91895q.32337-6.45427,1.13953-12.87207a109.58558,109.58558,0,0,1,2.46447-12.67627c-.405,2.11438-.88,4.21167-1.16809,6.34388-.37658,2.11609-.62426,4.25158-.89465,6.38244-.46265,4.27136-.84216,8.55261-1.016,12.84717-.21668,4.29175-.28784,8.59009-.28259,12.88892q.004,3.22448.09179,6.449Q370.62828,234.15352,370.80845,237.37653Z" fill="#065082"/><path d="M322.79685,198.7779a16.36575,16.36575,0,0,1,1.0238-2.904c.216-.4635.43287-.92652.68689-1.37281a12.03154,12.03154,0,0,1,.81629-1.31445,12.00787,12.00787,0,0,1-.44727,1.4812c-.16711.4856-.37134.95447-.57641,1.42285A16.36815,16.36815,0,0,1,322.79685,198.7779Z" fill="#065082"/><path d="M315.46885,220.004a25.20383,25.20383,0,0,0-6.19654-1.116,15.86771,15.86771,0,0,0-3.11438.18847,13.42073,13.42073,0,0,0-3.00781.92749,8.96067,8.96067,0,0,1,2.92359-1.32373,11.765,11.765,0,0,1,3.21862-.31787,15.05611,15.05611,0,0,1,3.18616.49146A13.59414,13.59414,0,0,1,315.46885,220.004Z" fill="#065082"/><path d="M326.27146,187.533a24.92459,24.92459,0,0,0-.02795-5.42652,19.05485,19.05485,0,0,0-1.31556-5.20739,13.81563,13.81563,0,0,0-2.88024-4.49207,17.15545,17.15545,0,0,0-4.30469-3.25732,14.155,14.155,0,0,1,4.59411,2.974,13.49549,13.49549,0,0,1,3.07654,4.57409,18.05494,18.05494,0,0,1,1.2312,5.37134A18.89062,18.89062,0,0,1,326.27146,187.533Z" fill="#065082"/><path d="M361.522,242.87263a48.51465,48.51465,0,0,1-9.25122-.91529,47.28475,47.28475,0,0,1-8.93457-2.6538,32.5439,32.5439,0,0,1-8.01587-4.76148,26.55548,26.55548,0,0,1-3.29517-3.30762,24.81251,24.81251,0,0,1-2.53186-3.90234,25.19487,25.19487,0,0,0,6.08191,6.89526,35.00942,35.00942,0,0,0,3.82044,2.57251,39.564,39.564,0,0,0,4.144,2.0188,50.34575,50.34575,0,0,0,8.81262,2.7439q2.259.50171,4.55664.82373C358.43711,242.61311,359.97507,242.796,361.522,242.87263Z" fill="#065082"/><circle cx="422.94911" cy="156.9746" r="25.17773" fill="#c0d6f2"/><path d="M443.65927,142.66177a25.15995,25.15995,0,0,1,3.88781,19.68257c-.01592.00909-.03093.02062-.04707.02926-.69119.36871-2.17394.65321-2.89689,0a7.57089,7.57089,0,0,1-.899-1.99785c-.36235-.94741-.43854-1.25647-.79914-1.49836-.459-.308-.84455-.14873-1.0988-.49948-.2284-.31512-.009-.57028-.09991-1.09887a3.01772,3.01772,0,0,0-1.29861-1.69811c-.85834-.69119-1.30059-.61849-1.4541-1.08932-.09627-.29541.01168-.52692.45514-1.50791a15.41545,15.41545,0,0,0,.899-2.09776,4.40284,4.40284,0,0,0-.49941-2.49732c-.64533-1.8548-.39691-2.19-.899-4.0956-1.01139-3.83816-2.76673-5.31538-2.39741-5.69387C436.96689,138.13279,440.4518,139.53716,443.65927,142.66177Z" fill="#a6b862"/><path d="M401.38064,143.98131c1.73965-1.79029,3.39978-2.78326,3.86477-2.48527.20248.12978.06989.43474.39949,1.1987.3155.731,1.08394,1.95108,1.99792,1.99785.4095.021.59871-.20634,1.89793-1.29862,1.93493-1.62662,2.26733-1.75474,2.59724-1.69818.84416.14478,1.5158,1.47183,1.1987,1.99791-.3111.51609-1.43309.02775-1.79809.59932a1.45584,1.45584,0,0,0,.59939,1.69819,2.32653,2.32653,0,0,0,2.09775-.09992,3.98015,3.98015,0,0,0,2.09776-1.59827c.534-.88108.372-1.572.79914-1.69819.387-.11431.9346.33036,1.1987.79914.456.80952-.09855,1.39815.29966,1.99792.5129.77245,1.80272.35325,1.99784.899.18095.50585-.75615,1.34425-1.49836,1.7981-.91906.56187-1.23153.3459-2.39741.79914-1.744.67792-1.62693,1.38738-3.19655,1.89793-1.36343.44346-1.81773.02729-2.39749.59939-.47613.46984-.5505,1.21228-.69923,2.69707-.11818,1.1796.01835,1.46152.09991,1.59828a1.898,1.898,0,0,0,1.99785.79913c.39828-.10567.66511-.37008,1.1987-.899.61167-.60637.61228-.838.99889-.999.59492-.24766.87676.18261,1.39853,0,.694-.243.971-1.27572,1.29861-2.49732.33066-1.23305.259-1.74951.69923-1.99785.35992-.20308.58324.04321,1.39853,0a6.27452,6.27452,0,0,0,1.798-.49948,15.72065,15.72065,0,0,1,2.19766-.59931,6.57319,6.57319,0,0,1,3.19663.39957,7.0718,7.0718,0,0,1,3.3963,1.99784,5.07394,5.07394,0,0,1,1.49844,3.79594,4.62505,4.62505,0,0,1-1.49844,2.89682c-1.15671,1.01056-1.93175.54064-2.99681,1.49844a4.80615,4.80615,0,0,0-1.39845,3.19655c-.02835.51888.01948,1.238,1.59827,4.49516,1.2282,2.53394,1.54961,2.82147,1.69819,3.89585.16617,1.20144.10484,3.30518-.999,3.89578-.61122.327-.90974-.14827-3.29646-.39957a14.35111,14.35111,0,0,0-2.69707-.09983c-1.35433.09263-1.51838.33-2.29758.19974a4.85887,4.85887,0,0,1-2.2975-1.1987c-.98948-.8074-.8948-1.17187-1.898-1.99785a9.62262,9.62262,0,0,0-1.99776-1.1987c-1.45963-.73933-1.84942-.70522-3.09672-1.39853-1.08826-.60485-1.9281-1.08447-1.89793-1.69819a1.34809,1.34809,0,0,1,.899-.99888c.74964-.29087,1.16005.27131,1.7981,0a1.80991,1.80991,0,0,0,.899-1.7981c-.05564-.56907-.40457-1.29482-.79914-1.29862-.49978-.00477-.4734,1.15482-1.39853,1.69819a2.65961,2.65961,0,0,1-2.59723-.19975c-.67975-.41912-1.47327-1.3165-1.29854-2.09775.13326-.59613.72576-.658.899-1.39853.11408-.4878.02092-1.16186-.29974-1.29862-.6028-.25713-1.86594,1.44621-2.49732,2.29758-1.03823,1.40005-1.55734,2.10011-1.69819,3.09664-.17162,1.2147.26259,2.02377-.29965,2.59723a1.5361,1.5361,0,0,1-1.19871.39957,1.62134,1.62134,0,0,1-.598-.18617,25.192,25.192,0,0,1,1.02868-24.09981Z" fill="#a6b862"/><path d="M443.83665,138.22456a42.025,42.025,0,0,1,7.53332-.35694,15.64014,15.64014,0,0,1,7.41162,1.91052,4.99455,4.99455,0,0,1,2.28784,3.37269,6.736,6.736,0,0,1-.80261,3.98425,21.71057,21.71057,0,0,1-4.90954,5.98242,64.85768,64.85768,0,0,1-12.58814,8.53467,110.0972,110.0972,0,0,1-13.85657,6.15454,112.82288,112.82288,0,0,1-14.56372,4.20972,69.31722,69.31722,0,0,1-15.10632,1.67944,26.41145,26.41145,0,0,1-7.62964-1.08374,9.27991,9.27991,0,0,1-3.48364-1.97119,4.64678,4.64678,0,0,1-1.436-3.81873,8.07731,8.07731,0,0,1,1.43054-3.66748,18.09142,18.09142,0,0,1,2.45044-2.93359,37.01569,37.01569,0,0,1,5.91077-4.68555,43.95584,43.95584,0,0,0-5.52527,5.04932,17.46731,17.46731,0,0,0-2.1925,2.96509,7.23972,7.23972,0,0,0-1.09546,3.33313,3.59029,3.59029,0,0,0,1.2456,2.92248,8.10579,8.10579,0,0,0,3.08753,1.55566,25.95078,25.95078,0,0,0,7.24194.77393,72.61162,72.61162,0,0,0,14.69641-1.96851,115.14181,115.14181,0,0,0,14.28553-4.23828,112.50544,112.50544,0,0,0,13.66-5.94677,67.595,67.595,0,0,0,12.44226-8.03211,21.05107,21.05107,0,0,0,4.77771-5.415,5.55789,5.55789,0,0,0,.82776-3.23071,3.96565,3.96565,0,0,0-1.71192-2.72571,14.98529,14.98529,0,0,0-6.89819-2.18506A51.20145,51.20145,0,0,0,443.83665,138.22456Z" fill="#f9e0c0"/><path d="M412.437,173.24685l-2.57506.50225.68421-3.47474-1.93986-2.963,2.57507-.50225,1.10392,1.13721,5.54379-1.09728-4.43646-5.80671,2.5751-.50226,5.73945,5.55257,4.491-.87595a1.96772,1.96772,0,0,1,.75339,3.86265l-4.446.86717-3.24664,7.31052-2.5751.50226,1.90891-7.04961-5.55712,1.08389Zm0,0" fill="#6c7fd8"/><path d="M250.97674,265.28943H220.63039a6.06927,6.06927,0,0,0-6.06927,6.06925l-.00016,39.46955h6.06927V274.39334a3.03464,3.03464,0,0,1,3.03463-3.03464H247.942a3.03464,3.03464,0,0,1,3.03463,3.03464v36.43489h6.06927l.00016-39.4695A6.06926,6.06926,0,0,0,250.97674,265.28943Z" fill="#935b50"/><path d="M205.15959,423.12179l-.012.01222a3.03673,3.03673,0,0,0-2.73736,3.02251v6.06917a9.11,9.11,0,0,0,18.22,0v-6.06917a3.03456,3.03456,0,0,0-3.0226-3.02251H205.46918a2.70053,2.70053,0,0,0-.30959-.01222Zm0,0" fill="#935b50"/><path d="M253.7195,423.12179l-.012.01222a3.03673,3.03673,0,0,0-2.73736,3.02251v6.06917a9.11,9.11,0,0,0,18.22,0v-6.06917a3.03456,3.03456,0,0,0-3.0226-3.02251H254.02909a2.70053,2.70053,0,0,0-.30959-.01222Zm0,0" fill="#935b50"/><path d="M199.38778,307.80573a9.13148,9.13148,0,0,0-9.09187,9.09168V420.08724a9.15044,9.15044,0,0,0,9.09187,9.116H272.219a9.17128,9.17128,0,0,0,9.116-9.116V316.89741a9.15234,9.15234,0,0,0-9.116-9.09168Zm0,0" fill="#a2aee6"/><path d="M235.74265,325.97705a3.02932,3.02932,0,0,0-2.974,3.071v78.8884a3.03468,3.03468,0,1,0,6.06936,0v-78.8884a2.99857,2.99857,0,0,0-.90137-2.19392,2.96673,2.96673,0,0,0-2.194-.87711Zm-24.57149,12.13854a3.04,3.04,0,0,0-2.6917,3.071V395.798a3.04071,3.04071,0,0,0,6.0814,0V341.18662a3.05977,3.05977,0,0,0-.99527-2.30024,3.0142,3.0142,0,0,0-2.39443-.77079Zm48.21743,0a3.04,3.04,0,0,0-2.6917,3.071V395.798a3.04071,3.04071,0,0,0,6.08141,0V341.18662a3.05982,3.05982,0,0,0-.99528-2.30024,3.0142,3.0142,0,0,0-2.39443-.77079Zm.349,0" fill="#4f66d0"/><path d="M444.72752,346.57909a8.33818,8.33818,0,0,0-8.30848,8.27526v11.04853h5.53539V354.85435a2.71355,2.71355,0,0,1,2.77309-2.77317H461.3003a2.70191,2.70191,0,0,1,2.75109,2.77317v11.04853h5.52434V354.85435a8.31144,8.31144,0,0,0-8.27543-8.27526Zm0,0" fill="#6c7fd8"/><path d="M406.04665,363.12979a8.32859,8.32859,0,0,0-8.27527,8.29735V432.194a8.30969,8.30969,0,0,0,8.27527,8.27543h93.91252a8.32871,8.32871,0,0,0,8.29739-8.27543V371.42714a8.34761,8.34761,0,0,0-8.29739-8.29735Zm0,0" fill="#f73c4f"/><path d="M417.09525,363.12979v77.33965h11.04852V363.12979Zm60.75575,0v77.33965h11.0596V363.12979Zm0,0" fill="#6c7fd8"/><path d="M441.95443,393.51314a2.74562,2.74562,0,0,0-2.75109,2.77317v11.04852a2.74774,2.74774,0,0,0,2.75109,2.75109h22.097a2.74564,2.74564,0,0,0,2.77325-2.75109V396.28631a2.74612,2.74612,0,0,0-.8093-1.96387,2.79259,2.79259,0,0,0-1.96395-.8093Zm0,0" fill="#ffba55"/></svg>